<?xml version="1.0" encoding="UTF-8" standalone="no"?>
<!DOCTYPE svg PUBLIC "-//W3C//DTD SVG 1.1//EN" "http://www.w3.org/Graphics/SVG/1.1/DTD/svg11.dtd">
<svg xmlns="http://www.w3.org/2000/svg"
     xmlns:xlink="http://www.w3.org/1999/xlink"
     version="1.1"
     width="300"
     height="300"
     viewBox="0 0 300 300"
     xml:space="preserve">
    <desc>Created with Fabric.js 5.2.4</desc>
    <defs>
    </defs>
    <rect x="0"
          y="0"
          width="100%"
          height="100%"
          fill="transparent" />
    <g transform="matrix(1 0 0 1 150 150)"
       id="434998ac-6a47-4fa9-9e9b-1ce6faa2d0f9">
        <rect style="stroke: none; stroke-width: 1; stroke-dasharray: none; stroke-linecap: butt; stroke-dashoffset: 0; stroke-linejoin: miter; stroke-miterlimit: 4; fill: rgb(255,255,255); fill-rule: nonzero; opacity: 1; visibility: hidden;"
              vector-effect="non-scaling-stroke"
              x="-150"
              y="-150"
              rx="0"
              ry="0"
              width="300"
              height="300" />
    </g>
    <g transform="matrix(0 0 0 0 0 0)"
       id="3d56e4f9-4d08-425e-935b-8b1e02ef426c">
    </g>
    <g transform="matrix(3.51 0 0 3.51 149.94 149.94)"
       id="c01b3633-eceb-4c76-b871-699c677a79b3">
        <polygon style="stroke: rgb(183,0,0); stroke-width: 14; stroke-dasharray: none; stroke-linecap: butt; stroke-dashoffset: 0; stroke-linejoin: miter; stroke-miterlimit: 4; fill: rgb(255,217,4); fill-rule: nonzero; opacity: 1;"
                 vector-effect="non-scaling-stroke"
                 points="0,-35.47 11.56,-12.17 37.29,-8.4 18.68,9.8 23.06,35.47 0,23.42 -23.06,35.47 -18.74,9.8 -37.29,-8.4 -11.56,-12.17 " />
    </g>
    <g transform="matrix(0 0 0 0 0 0)">
        <g style="">
        </g>
    </g>
    <g transform="matrix(0 0 0 0 0 0)">
        <g style="">
        </g>
    </g>
    <g transform="matrix(0 0 0 0 0 0)">
        <g style="">
        </g>
    </g>
    <g transform="matrix(0 0 0 0 0 0)">
        <g style="">
        </g>
    </g>
    <g transform="matrix(1 0 0 1 150 167.66)"
       style=""
       id="70d4001d-99d1-41ed-9e90-0570bfa380d7">
        <text xml:space="preserve"
              font-family="Amasis MT Medium"
              font-size="104"
              font-style="normal"
              font-weight="700"
              style="stroke: none; stroke-width: 1; stroke-dasharray: none; stroke-linecap: butt; stroke-dashoffset: 0; stroke-linejoin: miter; stroke-miterlimit: 4; fill: rgb(183,0,0); fill-rule: nonzero; opacity: 1; white-space: pre;">
            <tspan x="-60.32"
                   y="32.67">14</tspan>
        </text>
    </g>
    <g transform="matrix(NaN NaN NaN NaN 0 0)">
        <g style="">
        </g>
    </g>
</svg>